# This file uses centimeters as units for non-parametric coordinates.

mtllib frame3_cube_face1.mtl
g default
v -46.737717 18.185751 -23.299805
v -13.249196 18.208706 -24.176434
v -46.737717 40.178211 -22.723911
v -13.249196 40.201168 -23.600540
v -46.750805 40.191296 -23.223568
v -13.262284 40.214252 -24.100195
v -46.750805 18.198835 -23.799459
v -13.262284 18.221790 -24.676088
vt 0.002682 -0.001899
vt 0.816045 -0.001899
vt 0.816045 0.548986
vt 0.002682 0.548986
vt 0.846679 0.762738
vt 0.359954 0.762738
vt 0.625000 0.750000
vt 0.375000 0.750000
vt 0.625000 1.000000
vt 0.375000 1.000000
vt 1.333403 -0.011326
vt 1.333403 0.375706
vt -0.126770 -0.011326
vt -0.126770 0.375706
vn 0.026177 -0.026168 0.999315
vn 0.026177 -0.026168 0.999315
vn 0.026177 -0.026168 0.999315
vn 0.026177 -0.026168 0.999315
vn 0.000000 0.999657 0.026177
vn 0.000000 0.999657 0.026177
vn 0.000000 0.999657 0.026177
vn 0.000000 0.999657 0.026177
vn -0.026177 0.026168 -0.999315
vn -0.026177 0.026168 -0.999315
vn -0.026177 0.026168 -0.999315
vn -0.026177 0.026168 -0.999315
vn 0.000000 -0.999657 -0.026177
vn 0.000000 -0.999657 -0.026177
vn 0.000000 -0.999657 -0.026177
vn 0.000000 -0.999657 -0.026177
vn 0.999657 0.000685 -0.026168
vn 0.999657 0.000685 -0.026168
vn 0.999657 0.000685 -0.026168
vn 0.999657 0.000685 -0.026168
vn -0.999657 -0.000685 0.026168
vn -0.999657 -0.000685 0.026168
vn -0.999657 -0.000685 0.026168
vn -0.999657 -0.000685 0.026168
s off
g frame3_cube_face:pCube1
usemtl frame3_cube_face:initialShadingGroup
f 1/1/1 2/2/2 4/3/3 3/4/4
f 3/4/5 4/3/6 6/5/7 5/6/8
f 5/6/9 6/5/10 8/7/11 7/8/12
f 7/8/13 8/7/14 2/9/15 1/10/16
f 2/2/17 8/11/18 6/12/19 4/3/20
f 7/13/21 1/1/22 3/4/23 5/14/24
