# This file uses centimeters as units for non-parametric coordinates.

mtllib frame2_mike.mtl
g default
v -5.569488 -3.838545 -1.442498
v 5.569488 -3.838545 -1.442498
v -5.569488 3.838545 -1.442498
v 5.569488 3.838545 -1.442498
v -6.255314 4.360560 -1.480227
v 6.255314 4.360560 -1.480227
v -6.255314 -4.360560 -1.480227
v 6.255314 -4.360560 -1.480227
v 6.255314 4.360560 -1.178332
v -6.255314 4.360560 -1.178332
v -6.255314 -4.360560 -1.178332
v 6.255314 -4.360560 -1.178332
v 5.978641 4.123400 -0.979439
v -5.978641 4.123400 -0.979439
v -5.978641 -4.123400 -0.979439
v 5.978641 -4.123400 -0.979439
vt 0.305582 0.529252
vt 0.903202 0.531084
vt 0.901893 0.928640
vt 0.304274 0.926808
vt 0.923796 0.943458
vt 0.282274 0.941492
vt 0.255719 -0.010664
vt 0.926928 -0.008606
vt 0.925442 0.443013
vt 0.254233 0.440956
vt 0.283679 0.514434
vt 0.925201 0.516400
vt 0.254176 0.458310
vt 0.925385 0.460367
vt 0.925334 0.476001
vt 0.254125 0.473943
vt 0.923769 0.951467
vt 0.923718 0.967101
vt 0.455820 0.965667
vt 0.455871 0.950033
vt 0.254101 0.481176
vt 0.925310 0.483234
vt 0.925258 0.498867
vt 0.254049 0.496810
vt -0.016237 0.969928
vt 0.451661 0.971362
vt 0.451610 0.986995
vt -0.016288 0.985561
vt 0.269053 0.448056
vt 0.910576 0.450022
vt 0.910961 0.977362
vt 0.468511 0.976005
vt 0.910381 0.509121
vt 0.268859 0.507155
vt -0.003478 0.959667
vt 0.438972 0.961023
vn 0.000000 0.000000 1.000000
vn 0.000000 0.000000 1.000000
vn 0.000000 0.000000 1.000000
vn 0.000000 0.000000 1.000000
vn 0.000000 -0.851744 0.523958
vn 0.000000 -0.851744 0.523958
vn 0.000000 -0.269620 0.962967
vn 0.000000 -0.269620 0.962967
vn 0.000000 0.000000 -1.000000
vn 0.000000 0.000000 -1.000000
vn 0.000000 0.000000 -1.000000
vn 0.000000 0.000000 -1.000000
vn 0.000000 0.269620 0.962967
vn 0.000000 0.269620 0.962967
vn 0.000000 0.851744 0.523958
vn 0.000000 0.851744 0.523958
vn -0.749379 0.000000 0.662142
vn -0.193625 0.000000 0.981076
vn -0.193625 0.000000 0.981076
vn -0.749379 0.000000 0.662142
vn 0.193625 0.000000 0.981076
vn 0.749379 0.000000 0.662142
vn 0.749379 0.000000 0.662142
vn 0.193625 0.000000 0.981076
vn 0.000000 0.925460 0.378846
vn 0.000000 0.925460 0.378846
vn 0.000000 1.000000 0.000000
vn 0.000000 1.000000 0.000000
vn -1.000000 0.000000 0.000000
vn -0.909119 0.000000 0.416536
vn -0.909119 0.000000 0.416536
vn -1.000000 0.000000 0.000000
vn 0.000000 -1.000000 0.000000
vn 0.000000 -1.000000 0.000000
vn 0.000000 -0.925460 0.378845
vn 0.000000 -0.925460 0.378845
vn 0.909119 0.000000 0.416537
vn 0.909119 0.000000 0.416537
vn 1.000000 0.000000 0.000000
vn 1.000000 0.000000 0.000000
vn 0.000000 -0.269620 0.962967
vn 0.000000 -0.269620 0.962967
vn 0.000000 0.925460 0.378846
vn 0.000000 0.925460 0.378846
vn -0.909119 0.000000 0.416536
vn 0.193625 0.000000 0.981076
vn 0.193625 0.000000 0.981076
vn -0.909119 0.000000 0.416536
vn 0.000000 -0.925460 0.378845
vn 0.000000 -0.925460 0.378845
vn 0.000000 0.269620 0.962967
vn 0.000000 0.269620 0.962967
vn -0.193625 0.000000 0.981076
vn -0.193625 0.000000 0.981076
vn 0.909119 0.000000 0.416537
vn 0.909119 0.000000 0.416537
s off
g frame_2:frame
usemtl frame_2:initialShadingGroup
f 1/1/1 2/2/2 4/3/3 3/4/4
f 3/4/5 4/3/6 13/5/7 14/6/8
f 5/7/9 6/8/10 8/9/11 7/10/12
f 15/11/13 16/12/14 2/2/15 1/1/16
f 2/2/17 16/12/18 13/5/19 4/3/20
f 15/11/21 1/1/22 3/4/23 14/6/24
f 10/13/25 9/14/26 6/15/27 5/16/28
f 7/17/29 11/18/30 10/19/31 5/20/32
f 7/21/33 8/22/34 12/23/35 11/24/36
f 9/25/37 12/26/38 8/27/39 6/28/40
f 14/29/41 13/30/42 9/14/43 10/13/44
f 11/18/45 15/31/46 14/32/47 10/19/48
f 11/24/49 12/23/50 16/33/51 15/34/52
f 13/35/53 16/36/54 12/26/55 9/25/56
