# This file uses centimeters as units for non-parametric coordinates.

mtllib frame1_face.mtl
g default
v 20.085869 2.320792 -7.898920
v 34.829552 2.320792 -6.609015
v 20.354607 10.988689 -10.970618
v 35.098289 10.988689 -9.680713
v 20.395664 10.821112 -11.439907
v 35.139347 10.821112 -10.150002
v 20.126926 2.153214 -8.368209
v 34.870609 2.153214 -7.078303
vt 0.194353 0.316585
vt 0.805647 0.316585
vt 0.194353 0.683340
vt 0.805647 0.683340
vt 0.288468 0.995889
vt 0.711532 0.995889
vt 0.375000 1.180524
vt 0.625000 1.180524
vt 0.375000 1.430524
vt 0.625000 1.430524
vt 1.134595 0.381071
vt 1.134595 0.688480
vt -0.134595 0.381071
vt -0.134595 0.688480
vn -0.082115 0.335156 0.938578
vn -0.082115 0.335156 0.938578
vn -0.082115 0.335156 0.938578
vn -0.082115 0.335156 0.938578
vn 0.029211 0.942164 -0.333878
vn 0.029211 0.942163 -0.333878
vn 0.029211 0.942164 -0.333878
vn 0.029211 0.942163 -0.333878
vn 0.082115 -0.335156 -0.938578
vn 0.082115 -0.335156 -0.938578
vn 0.082115 -0.335156 -0.938578
vn 0.082115 -0.335156 -0.938578
vn -0.029211 -0.942163 0.333880
vn -0.029211 -0.942163 0.333880
vn -0.029211 -0.942163 0.333880
vn -0.029211 -0.942163 0.333880
vn 0.996195 -0.000002 0.087156
vn 0.996195 -0.000002 0.087156
vn 0.996195 -0.000002 0.087156
vn 0.996195 -0.000002 0.087156
vn -0.996195 0.000000 -0.087156
vn -0.996195 0.000000 -0.087156
vn -0.996195 0.000000 -0.087156
vn -0.996195 0.000000 -0.087156
s off
g pCube1
usemtl initialShadingGroup
f 1/1/1 2/2/2 4/4/3 3/3/4
f 3/3/5 4/4/6 6/6/7 5/5/8
f 5/5/9 6/6/10 8/8/11 7/7/12
f 7/7/13 8/8/14 2/10/15 1/9/16
f 2/2/17 8/11/18 6/12/19 4/4/20
f 7/13/21 1/1/22 3/3/23 5/14/24
