# This file uses centimeters as units for non-parametric coordinates.

mtllib frame3_face.mtl
g default
v -46.306881 18.165314 -21.654470
v -46.329983 40.066555 -22.226177
v -12.942111 40.066555 -23.141415
v -12.919009 18.165314 -22.569706
vt 0.003711 0.004162
vt 0.817992 0.004162
vt 0.817992 0.551331
vt 0.003711 0.551331
vn 0.027392 0.026114 0.999284
vn 0.027392 0.026114 0.999284
vn 0.027392 0.026114 0.999284
vn 0.027392 0.026114 0.999284
s off
g frame3_mike4:frontFace
usemtl initialShadingGroup
f 1/1/1 4/2/2 3/3/3 2/4/4
