# This file uses centimeters as units for non-parametric coordinates.

mtllib frame1_border.mtl
g default
v 20.147688 2.295183 -7.978398
v 34.786346 2.295183 -6.697681
v 20.417379 10.993795 -11.060980
v 35.056038 10.993795 -9.780263
v 17.114187 12.878361 -12.452560
v 38.550694 12.878361 -10.577108
v 16.719257 0.140320 -7.938500
v 38.155766 0.140320 -6.063048
v 38.498718 13.090492 -9.983051
v 17.062214 13.090492 -11.858502
v 16.667284 0.352452 -7.344441
v 38.103790 0.352452 -5.468990
v 36.383022 12.007875 -9.359257
v 19.037449 12.007875 -10.876798
v 18.717888 1.700757 -7.224198
v 36.063461 1.700757 -5.706657
vt 0.193380 0.316092
vt 0.806342 0.313954
vt 0.807836 0.684614
vt 0.194874 0.686752
vt 0.864648 0.718686
vt 0.138338 0.721220
vt 0.136568 0.282019
vt 0.862877 0.279485
vt 0.055162 1.334694
vt 0.952770 1.331562
vt 0.952872 1.356972
vt 0.055264 1.360104
vt 0.953040 1.398622
vt 0.953142 1.424031
vt 0.389176 1.425999
vt 0.389074 1.400590
vt 0.055297 1.368224
vt 0.952905 1.365092
vt 0.953007 1.390501
vt 0.055400 1.393633
vt 0.389209 1.434119
vt 0.953175 1.432151
vt 0.953278 1.457562
vt 0.389311 1.459530
vt 0.950506 0.770179
vt 0.052898 0.773311
vt 0.050710 0.230526
vt 0.948317 0.227394
vn -0.083491 -0.286937 0.954304
vn -0.083491 -0.286937 0.954304
vn -0.080058 0.395277 0.915067
vn -0.080058 0.395277 0.915067
vn -0.083829 0.273636 0.958173
vn -0.083829 0.273636 0.958173
vn -0.048940 0.827460 0.559388
vn -0.048940 0.827460 0.559388
vn -0.491491 0.304393 0.815954
vn -0.041591 0.334879 0.941343
vn -0.041591 0.334879 0.941343
vn -0.491491 0.304393 0.815954
vn -0.122504 0.334879 0.934264
vn 0.342336 0.304393 0.888905
vn 0.342336 0.304393 0.888905
vn -0.122504 0.334879 0.934264
vn -0.030437 0.937039 0.347897
vn -0.030437 0.937039 0.347897
vn 0.029211 0.942163 -0.333880
vn 0.029211 0.942163 -0.333880
vn -0.996195 0.000000 -0.087156
vn -0.662545 0.268356 0.699299
vn -0.662545 0.268356 0.699299
vn -0.996195 0.000000 -0.087156
vn -0.029211 -0.942163 0.333880
vn -0.029211 -0.942163 0.333880
vn -0.075176 -0.505974 0.859266
vn -0.075176 -0.505974 0.859266
vn 0.531048 0.268356 0.803725
vn 0.531048 0.268356 0.803725
vn 0.996195 -0.000000 0.087156
vn 0.996195 -0.000000 0.087156
vn -0.080058 0.395277 0.915067
vn -0.080058 0.395277 0.915067
vn -0.030437 0.937039 0.347897
vn -0.030437 0.937039 0.347897
vn -0.662545 0.268356 0.699299
vn -0.122504 0.334879 0.934264
vn -0.122504 0.334879 0.934264
vn -0.662545 0.268356 0.699299
vn -0.075176 -0.505974 0.859266
vn -0.075176 -0.505974 0.859266
vn -0.083829 0.273636 0.958173
vn -0.083829 0.273636 0.958173
vn -0.041591 0.334879 0.941343
vn -0.041591 0.334879 0.941343
vn 0.531048 0.268356 0.803725
vn 0.531048 0.268356 0.803725
s off
g frame1_mike:frame
usemtl initialShadingGroup
f 3/4/1 4/3/2 13/5/3 14/6/4
f 15/7/5 16/8/6 2/2/7 1/1/8
f 2/2/9 16/8/10 13/5/11 4/3/12
f 15/7/13 1/1/14 3/4/15 14/6/16
f 10/9/17 9/10/18 6/11/19 5/12/20
f 7/13/21 11/14/22 10/15/23 5/16/24
f 7/17/25 8/18/26 12/19/27 11/20/28
f 9/21/29 12/22/30 8/23/31 6/24/32
f 14/6/33 13/5/34 9/25/35 10/26/36
f 11/27/37 15/7/38 14/6/39 10/26/40
f 11/27/41 12/28/42 16/8/43 15/7/44
f 13/5/45 16/8/46 12/28/47 9/25/48
