# This file uses centimeters as units for non-parametric coordinates.

mtllib frame3_border.mtl
g default
v -47.220715 40.672005 -21.827982
v -47.555153 40.894192 -21.749334
v -47.377777 40.775871 -21.802668
v -47.225880 40.669884 -21.960392
v -47.053814 40.557392 -21.957035
v -46.886864 40.444687 -22.039394
v -46.890915 40.443031 -22.143301
v -47.196346 17.567400 -21.203320
v -47.530319 17.347456 -21.112717
v -47.353191 17.464211 -21.172407
v -47.201511 17.565287 -21.335730
v -47.029686 17.678024 -21.338465
v -46.862968 17.788235 -21.426849
v -46.867020 17.786572 -21.530754
v -11.998051 40.672005 -22.827999
v -11.658223 40.894192 -22.768492
v -11.839585 40.775871 -22.811644
v -12.003217 40.669884 -22.960407
v -12.174641 40.557392 -22.947300
v -12.347690 40.444687 -23.020008
v -12.351743 40.443031 -23.123909
v -11.973981 17.567400 -22.203327
v -11.633926 17.347456 -22.131861
v -11.815183 17.464216 -22.181376
v -11.979143 17.565287 -22.335739
v -12.150680 17.678024 -22.328724
v -12.323794 17.788235 -22.407463
v -12.327847 17.786572 -22.511364
v -46.128483 39.943275 -22.151421
v -46.105633 18.286354 -21.565899
v -13.113076 39.943275 -23.088772
v -13.090237 18.286354 -22.503250
v -47.581242 40.883499 -22.417953
v -11.684309 40.883499 -23.437115
v -47.556408 17.336763 -21.781338
v -11.660008 17.336763 -22.800484
v -46.139481 39.938766 -22.433319
v -46.116631 18.281845 -21.847797
v -13.124074 39.938766 -23.370670
v -13.101236 18.281845 -22.785147
vt 0.913105 0.821758
vt 0.913105 0.030524
vt 0.918486 0.030550
vt 0.918486 0.821784
vt 0.895381 0.841358
vt 0.892559 0.844162
vt 0.892559 0.007926
vt 0.895381 0.010760
vt 0.898593 0.838584
vt 0.898593 0.013568
vt 0.887388 0.846728
vt 0.887388 0.005306
vt 0.890022 0.007913
vt 0.890022 0.844150
vt 0.884299 0.849655
vt 0.884299 0.002348
vt 0.900615 0.013578
vt 0.900615 0.838594
vt 0.816086 0.991156
vt 0.022317 0.991156
vt 0.022344 0.996546
vt 0.816112 0.996546
vt 0.831199 0.973691
vt 0.833986 0.970895
vt 0.004214 0.970895
vt 0.007030 0.973691
vt 0.828442 0.976835
vt 0.009819 0.976835
vt 0.836532 0.965707
vt 0.001613 0.965707
vt 0.004201 0.968340
vt 0.833974 0.968340
vt 0.839445 0.962620
vt -0.001326 0.962620
vt 0.009829 0.978801
vt 0.828452 0.978801
vt 0.958661 0.849815
vt 0.958661 0.002527
vt 0.945832 0.002409
vt 0.945832 0.849698
vt 0.969634 0.841570
vt 0.969634 0.010992
vt 0.966865 0.008143
vt 0.966865 0.844361
vt 0.972756 0.838811
vt 0.972756 0.013814
vt 0.974719 0.013832
vt 0.974719 0.838830
vt 0.987027 0.822050
vt 0.987027 0.030833
vt 0.961741 0.846903
vt 0.964328 0.844336
vt 0.964328 0.008119
vt 0.961741 0.005500
vt 0.838993 0.887966
vt -0.001775 0.887966
vt -0.001743 0.875145
vt 0.839025 0.875145
vt 0.830673 0.899039
vt 0.006500 0.899039
vt 0.003705 0.896230
vt 0.833479 0.896230
vt 0.827895 0.902197
vt 0.009265 0.902197
vt 0.009260 0.904148
vt 0.827890 0.904148
vt 0.815430 0.916593
vt 0.021656 0.916593
vt 0.836064 0.891080
vt 0.833485 0.893702
vt 0.003711 0.893702
vt 0.001142 0.891080
vt 0.021820 0.851691
vt 0.815593 0.851691
vt 0.922105 0.036800
vt 0.922105 0.814886
vt 0.871531 0.849593
vt 0.848155 0.814881
vt 0.848155 0.036780
vt 0.871531 0.002286
vt 0.839384 0.949845
vt 0.815771 0.926249
vt 0.022002 0.926249
vt -0.001387 0.949845
vt 0.992429 0.822100
vt 0.992429 0.030883
vt 0.815416 0.921986
vt 0.021642 0.921986
vn 0.999240 0.000000 -0.038983
vn 0.999240 0.000000 -0.038983
vn 0.999240 0.000000 -0.038983
vn 0.999240 0.000000 -0.038983
vn 0.129020 -0.127486 0.983413
vn 0.013248 0.050059 0.998658
vn -0.001830 0.027024 0.999633
vn 0.229001 0.026549 0.973064
vn 0.455547 0.024539 0.889874
vn 0.129020 -0.127486 0.983413
vn 0.229001 0.026549 0.973064
vn 0.455547 0.024539 0.889874
vn 0.134667 -0.136249 0.981479
vn 0.240194 0.026488 0.970364
vn 0.176304 0.026789 0.983971
vn 0.102491 -0.086535 0.990963
vn 0.166873 -0.186275 0.968223
vn 0.303761 0.026070 0.952392
vn 0.240194 0.026488 0.970364
vn 0.134667 -0.136249 0.981479
vn 0.548476 -0.836128 -0.008007
vn 0.999240 0.000000 -0.038978
vn 0.999240 0.000000 -0.038978
vn 0.548476 -0.836128 -0.008007
vn 0.999240 0.000000 -0.038985
vn 0.999240 0.000000 -0.038985
vn 0.999240 0.000000 -0.038985
vn 0.999240 0.000000 -0.038985
vn 0.000453 -0.999872 0.015973
vn 0.000453 -0.999872 0.015973
vn 0.000453 -0.999872 0.015973
vn 0.000453 -0.999872 0.015973
vn 0.027297 -0.273574 0.961464
vn 0.028305 0.073037 0.996927
vn 0.013248 0.050059 0.998658
vn 0.129020 -0.127486 0.983413
vn 0.023376 -0.567042 0.823357
vn 0.027297 -0.273574 0.961464
vn 0.129020 -0.127486 0.983413
vn 0.023376 -0.567042 0.823357
vn 0.027164 -0.289586 0.956766
vn 0.134667 -0.136249 0.981479
vn 0.102491 -0.086535 0.990963
vn 0.027825 -0.196788 0.980051
vn 0.026276 -0.377791 0.925518
vn 0.166873 -0.186275 0.968223
vn 0.134667 -0.136249 0.981479
vn 0.027164 -0.289586 0.956766
vn 0.000454 -0.999872 0.015991
vn 0.548476 -0.836128 -0.008007
vn 0.548476 -0.836128 -0.008007
vn 0.000454 -0.999872 0.015991
vn 0.000452 -0.999873 0.015939
vn 0.000452 -0.999873 0.015939
vn 0.000452 -0.999873 0.015939
vn 0.000452 -0.999873 0.015939
vn 0.999240 -0.000023 -0.038979
vn 0.999240 -0.000023 -0.038979
vn 0.999240 -0.000023 -0.038979
vn 0.999240 -0.000023 -0.038979
vn -0.172619 0.026439 0.984634
vn -0.172619 0.026439 0.984634
vn 0.058573 0.027041 0.997917
vn 0.058573 0.027041 0.997917
vn -0.400846 0.024339 0.915822
vn -0.400846 0.024339 0.915822
vn -0.172619 0.026439 0.984634
vn -0.172619 0.026439 0.984634
vn 0.028368 0.027045 0.999232
vn 0.028368 0.027045 0.999232
vn 0.028368 0.027045 0.999232
vn 0.028368 0.027045 0.999232
vn -0.183859 0.026375 0.982599
vn -0.119888 0.026707 0.992428
vn -0.119888 0.026707 0.992428
vn -0.183859 0.026375 0.982599
vn -0.247606 0.025928 0.968514
vn -0.183859 0.026375 0.982599
vn -0.183859 0.026375 0.982599
vn -0.247606 0.025928 0.968514
vn -0.999240 0.000013 0.038975
vn -0.999240 0.000013 0.038975
vn -0.999240 0.000013 0.038975
vn -0.999240 0.000013 0.038975
vn -0.999239 0.000000 0.039009
vn -0.999239 0.000000 0.039009
vn -0.999239 0.000000 0.039009
vn -0.999239 0.000000 0.039009
vn 0.000453 -0.999872 0.015972
vn 0.000453 -0.999872 0.015972
vn 0.000453 -0.999872 0.015972
vn 0.000453 -0.999872 0.015972
vn 0.026857 0.323150 0.945967
vn 0.026857 0.323150 0.945967
vn 0.028375 -0.019016 0.999416
vn 0.028375 -0.019016 0.999416
vn 0.022609 0.604442 0.796328
vn 0.022609 0.604442 0.796328
vn 0.026857 0.323150 0.945967
vn 0.026857 0.323150 0.945967
vn 0.028369 0.027047 0.999232
vn 0.028369 0.027047 0.999232
vn 0.028369 0.027047 0.999232
vn 0.028369 0.027047 0.999232
vn 0.026703 0.338667 0.940527
vn 0.027491 0.248290 0.968296
vn 0.027491 0.248290 0.968296
vn 0.026703 0.338667 0.940527
vn 0.025704 0.423861 0.905362
vn 0.026703 0.338667 0.940527
vn 0.026703 0.338667 0.940527
vn 0.025704 0.423861 0.905362
vn -0.000453 0.999873 -0.015958
vn -0.000453 0.999873 -0.015958
vn -0.000453 0.999873 -0.015958
vn -0.000453 0.999873 -0.015958
vn -0.000454 0.999872 -0.015981
vn -0.000454 0.999872 -0.015981
vn -0.000454 0.999872 -0.015981
vn -0.000454 0.999872 -0.015981
vn -0.028369 -0.027047 -0.999232
vn -0.028369 -0.027047 -0.999232
vn -0.028369 -0.027047 -0.999232
vn -0.028369 -0.027047 -0.999232
vn -0.028368 -0.027045 -0.999232
vn -0.028368 -0.027045 -0.999232
vn -0.028368 -0.027045 -0.999232
vn -0.028368 -0.027045 -0.999232
vn -0.028370 -0.027045 -0.999232
vn -0.028370 -0.027045 -0.999232
vn -0.028371 -0.027045 -0.999232
vn -0.028371 -0.027045 -0.999232
vn 0.028371 0.027045 0.999232
vn 0.028371 0.027045 0.999232
vn 0.028371 0.027045 0.999232
vn 0.028371 0.027045 0.999232
vn -0.028369 -0.027044 -0.999232
vn -0.028369 -0.027044 -0.999232
vn -0.028370 -0.027045 -0.999232
vn -0.028370 -0.027045 -0.999232
vn 0.028369 0.027044 0.999232
vn 0.028369 0.027044 0.999232
vn 0.028369 0.027044 0.999232
vn 0.028369 0.027044 0.999232
vn -0.000453 0.999872 -0.015972
vn -0.000453 0.999872 -0.015972
vn -0.548475 0.836128 0.008028
vn -0.548475 0.836128 0.008028
vn -0.548475 0.836128 0.008028
vn -0.548475 0.836128 0.008028
vn -0.999240 0.000000 0.038986
vn -0.999240 0.000000 0.038986
vn -0.999240 0.000000 0.038986
vn -0.999240 0.000000 0.038986
vn -0.999240 0.000000 0.038986
vn -0.999240 0.000000 0.038986
vn -0.000453 0.999872 -0.015973
vn -0.000453 0.999872 -0.015973
vn -0.000453 0.999872 -0.015973
vn -0.000453 0.999872 -0.015973
s off
g frame3_mike4:paintingFrame
usemtl initialShadingGroup
f 29/1/1 30/2/2 38/3/3 37/4/4
f 5/5/5 4/6/6 11/7/7 12/8/8
f 6/9/9 5/5/10 12/8/11 13/10/12
f 3/11/13 10/12/14 8/13/15 1/14/16
f 2/15/17 9/16/18 10/12/19 3/11/20
f 1/14/21 8/13/22 11/7/23 4/6/24
f 6/9/25 13/10/26 14/17/27 7/18/28
f 31/19/29 29/20/30 37/21/31 39/22/32
f 19/23/33 18/24/34 4/25/35 5/26/36
f 20/27/37 19/23/38 5/26/39 6/28/40
f 17/29/41 3/30/42 1/31/43 15/32/44
f 16/33/45 2/34/46 3/30/47 17/29/48
f 15/32/49 1/31/50 4/25/51 18/24/52
f 20/27/53 6/28/54 7/35/55 21/36/56
f 16/37/57 23/38/58 36/39/59 34/40/60
f 19/41/61 26/42/62 25/43/63 18/44/64
f 20/45/65 27/46/66 26/42/67 19/41/68
f 28/47/69 21/48/70 31/49/71 32/50/72
f 17/51/73 15/52/74 22/53/75 24/54/76
f 16/37/77 17/51/78 24/54/79 23/38/80
f 15/52/81 18/44/82 25/43/83 22/53/84
f 20/45/85 21/48/86 28/47/87 27/46/88
f 23/55/89 9/56/90 35/57/91 36/58/92
f 26/59/93 12/60/94 11/61/95 25/62/96
f 27/63/97 13/64/98 12/60/99 26/59/100
f 14/65/101 28/66/102 32/67/103 30/68/104
f 24/69/105 22/70/106 8/71/107 10/72/108
f 23/55/109 24/69/110 10/72/111 9/56/112
f 22/70/113 25/62/114 11/61/115 8/71/116
f 27/63/117 28/66/118 14/65/119 13/64/120
f 36/58/121 35/57/122 38/73/123 40/74/124
f 34/40/125 36/39/126 40/75/127 39/76/128
f 33/77/129 37/78/130 38/79/131 35/80/132
f 14/17/133 30/2/134 29/1/135 7/18/136
f 34/81/137 39/82/138 37/83/139 33/84/140
f 7/35/141 29/20/142 31/19/143 21/36/144
f 16/33/145 34/81/146 33/84/147 2/34/148
f 2/15/149 33/77/150 35/80/151 9/16/152
f 31/49/153 39/85/154 40/86/155 32/50/156
f 32/67/157 40/87/158 38/88/159 30/68/160
