# This file uses centimeters as units for non-parametric coordinates.

mtllib frame1_mike.mtl
g default
v -5.434385 8.502697 -1.181971
v 5.434385 8.502697 -1.181971
v -5.434385 15.331543 -1.181971
v 5.434385 15.331543 -1.181971
v -7.957985 16.917120 -1.480227
v 7.957985 16.917120 -1.480227
v -7.957985 6.917120 -1.480227
v 7.957985 6.917120 -1.480227
v 7.957985 16.917120 -1.012080
v -7.957985 16.917120 -1.012080
v -7.957985 6.917120 -1.012080
v 7.957985 6.917120 -1.012080
v 6.439286 15.962922 -0.718911
v -6.439286 15.962922 -0.718911
v -6.439286 7.871318 -0.718911
v 6.439286 7.871318 -0.718911
vt 0.193380 0.316092
vt 0.806342 0.313954
vt 0.807836 0.684614
vt 0.194874 0.686752
vt 0.864648 0.718686
vt 0.138338 0.721220
vt 0.052936 0.782739
vt 0.950544 0.779607
vt 0.952733 1.322392
vt 0.055125 1.325524
vt 0.136568 0.282019
vt 0.862877 0.279485
vt 0.055162 1.334694
vt 0.952770 1.331562
vt 0.952872 1.356972
vt 0.055264 1.360104
vt 0.953040 1.398622
vt 0.953142 1.424031
vt 0.389176 1.425999
vt 0.389074 1.400590
vt 0.055297 1.368224
vt 0.952905 1.365092
vt 0.953007 1.390501
vt 0.055400 1.393633
vt 0.389209 1.434119
vt 0.953175 1.432151
vt 0.953278 1.457562
vt 0.389311 1.459530
vt 0.950506 0.770179
vt 0.052898 0.773311
vt 0.050710 0.230526
vt 0.948317 0.227394
vn 0.000000 0.000000 1.000000
vn 0.000000 0.000000 1.000000
vn 0.000000 0.000000 1.000000
vn 0.000000 0.000000 1.000000
vn 0.000000 -0.591404 0.806376
vn 0.000000 -0.591404 0.806376
vn 0.000000 0.064554 0.997914
vn 0.000000 0.064554 0.997914
vn 0.000000 0.000000 -1.000000
vn 0.000000 0.000000 -1.000000
vn 0.000000 0.000000 -1.000000
vn 0.000000 0.000000 -1.000000
vn 0.000000 -0.064554 0.997914
vn 0.000000 -0.064554 0.997914
vn 0.000000 0.591404 0.806375
vn 0.000000 0.591404 0.806375
vn -0.418506 0.000000 0.908214
vn 0.040611 0.000000 0.999175
vn 0.040611 0.000000 0.999175
vn -0.418506 0.000000 0.908214
vn -0.040611 0.000000 0.999175
vn 0.418506 0.000000 0.908214
vn 0.418506 0.000000 0.908214
vn -0.040611 0.000000 0.999175
vn 0.000000 0.765798 0.643081
vn 0.000000 0.765798 0.643081
vn 0.000000 1.000000 0.000000
vn 0.000000 1.000000 0.000000
vn -1.000000 0.000000 0.000000
vn -0.599076 0.000000 0.800692
vn -0.599076 0.000000 0.800692
vn -1.000000 0.000000 0.000000
vn 0.000000 -1.000000 0.000000
vn 0.000000 -1.000000 0.000000
vn 0.000000 -0.765798 0.643081
vn 0.000000 -0.765798 0.643081
vn 0.599076 0.000000 0.800692
vn 0.599076 0.000000 0.800692
vn 1.000000 0.000000 0.000000
vn 1.000000 0.000000 0.000000
vn 0.000000 0.064554 0.997914
vn 0.000000 0.064554 0.997914
vn 0.000000 0.765798 0.643081
vn 0.000000 0.765798 0.643081
vn -0.599076 0.000000 0.800692
vn -0.040611 0.000000 0.999175
vn -0.040611 0.000000 0.999175
vn -0.599076 0.000000 0.800692
vn 0.000000 -0.765798 0.643081
vn 0.000000 -0.765798 0.643081
vn 0.000000 -0.064554 0.997914
vn 0.000000 -0.064554 0.997914
vn 0.040611 0.000000 0.999175
vn 0.040611 0.000000 0.999175
vn 0.599076 0.000000 0.800692
vn 0.599076 0.000000 0.800692
s off
g frame_1:frame
usemtl frame_1:initialShadingGroup
f 1/1/1 2/2/2 4/3/3 3/4/4
f 3/4/5 4/3/6 13/5/7 14/6/8
f 5/7/9 6/8/10 8/9/11 7/10/12
f 15/11/13 16/12/14 2/2/15 1/1/16
f 2/2/17 16/12/18 13/5/19 4/3/20
f 15/11/21 1/1/22 3/4/23 14/6/24
f 10/13/25 9/14/26 6/15/27 5/16/28
f 7/17/29 11/18/30 10/19/31 5/20/32
f 7/21/33 8/22/34 12/23/35 11/24/36
f 9/25/37 12/26/38 8/27/39 6/28/40
f 14/6/41 13/5/42 9/29/43 10/30/44
f 11/31/45 15/11/46 14/6/47 10/30/48
f 11/31/49 12/32/50 16/12/51 15/11/52
f 13/5/53 16/12/54 12/32/55 9/29/56
